<svg xmlns="http://www.w3.org/2000/svg" width="595.279" height="141" viewBox="0 354.445 595.279 141"><path fill="#E62E83" d="M79.443 362.968h14.829v115.508H79.443z"/><path fill="#49B449" d="M128.578 400.211h17.597l-34.652 36.683H95.155z"/><path fill="#863B93" d="M95.155 436.894h16.368l37.854 41.58h-19.358z"/><path fill="#00A5DF" d="M45.136 400.211H27.539l34.652 36.683h16.368z"/><path fill="#EB8C24" d="M62.191 436.894l-37.854 41.58h19.358l34.863-41.58z"/><path fill="#121617" d="M233.621 478.476h-11.323l-11.733-21.416-8.37 9.438v5.988h6.399v5.99h-20.841v-5.99h6.976V424.57h-6.976v-5.991h14.442v39.385l15.262-17.806h-4.924v-5.989h19.283v5.989h-6.155l-10.257 11.486 11.488 20.842h6.729zm39.995 0H252.2v-5.988h7.14V440.16h-7.14v-5.99h14.605v38.318h6.811v5.988zm-14.686-58.83h8.287v8.369h-8.287v-8.369zm82.441 58.83H320.94v-5.99h6.4v-27.402c0-3.283-1.314-4.514-5.744-4.514-6.564 0-9.929 1.477-14.278 4.432v27.484h6.481v5.99h-20.922v-5.99h6.975V440.16h-6.975v-5.99h14.44v6.154c3.939-3.855 7.141-6.564 15.1-6.564 8.86 0 12.389 3.527 12.389 11.076v27.65h6.564v5.99h.001zm62.577 0h-14.111v-6.234c-3.856 3.855-7.14 6.562-15.591 6.562-9.437 0-12.965-3.527-12.965-11.24v-22.48c0-7.713 3.528-11.242 12.965-11.242 8.451 0 11.733 2.707 15.591 6.562V424.57h-8.041v-5.992h15.508v53.91h6.646l-.002 5.988zm-14.112-33.394c-4.351-2.953-7.714-4.432-14.771-4.432-5.087 0-6.318 1.23-6.318 4.432v22.48c0 3.201 1.231 4.434 6.318 4.434 7.057 0 10.42-1.479 14.771-4.434v-22.48zm63.561-3.776h-2.873c-5.25 0-8.944 1.889-12.963 4.352v26.83h8.614v5.988h-23.056v-5.988h6.975v-32.246l-6.975-.082v-5.99h14.441v6.564c3.609-3.527 7.137-6.564 13.62-6.564h2.216v7.136zm27.271 26.422c0 3.117 1.312 4.432 4.431 4.432h10.996c3.2 0 4.43-1.312 4.43-4.432v-3.279h7.466v3.033c0 7.469-3.526 10.994-10.994 10.994h-12.8c-7.468 0-10.994-3.525-10.994-10.994v-22.316c0-7.467 3.526-10.996 10.994-10.996h12.8c7.468 0 10.994 3.529 10.994 10.996v12.963H480.67l-.002 9.599zm4.431-27.242c-3.118 0-4.431 1.312-4.431 4.432v7.631h19.855v-7.631c0-3.119-1.229-4.432-4.43-4.432h-10.994zm86.454 37.99H557.44v-6.234c-3.854 3.855-7.139 6.562-15.589 6.562-9.438 0-12.965-3.527-12.965-11.24v-22.48c0-7.713 3.526-11.242 12.965-11.242 8.45 0 11.733 2.707 15.589 6.562V424.57h-8.041v-5.992h15.509v53.91h6.646v5.988zm-14.113-33.394c-4.35-2.953-7.713-4.432-14.77-4.432-5.088 0-6.318 1.23-6.318 4.432v22.48c0 3.201 1.23 4.434 6.318 4.434 7.057 0 10.42-1.479 14.77-4.434v-22.48z"/></svg>