<?xml version="1.0" encoding="utf-8"?>
<!-- Generator: Adobe Illustrator 15.0.2, SVG Export Plug-In . SVG Version: 6.00 Build 0)  -->
<!DOCTYPE svg PUBLIC "-//W3C//DTD SVG 1.1//EN" "http://www.w3.org/Graphics/SVG/1.1/DTD/svg11.dtd">
<svg version="1.1" id="Layer_1" xmlns="http://www.w3.org/2000/svg" xmlns:xlink="http://www.w3.org/1999/xlink" x="0px" y="0px"
	 width="595.279px" height="141px" viewBox="0 354.445 595.279 141" enable-background="new 0 354.445 595.279 141"
	 xml:space="preserve">
<rect x="79.443" y="362.968" fill="#E62E83" width="14.829" height="115.508"/>
<polygon fill="#49B449" points="128.578,400.211 146.175,400.211 111.523,436.894 95.155,436.894 "/>
<polygon fill="#863B93" points="95.155,436.894 111.523,436.894 149.377,478.474 130.019,478.474 "/>
<polygon fill="#00A5DF" points="45.136,400.211 27.539,400.211 62.191,436.894 78.559,436.894 "/>
<polygon fill="#EB8C24" points="62.191,436.894 24.337,478.474 43.695,478.474 78.558,436.894 "/>
<polygon fill="#121617" points="233.621,478.476 222.298,478.476 210.565,457.06 202.195,466.498 202.195,472.486 208.594,472.486 
	208.594,478.476 187.753,478.476 187.753,472.486 194.729,472.486 194.729,424.57 187.753,424.57 187.753,418.579 202.195,418.579 
	202.195,457.964 217.457,440.158 212.533,440.158 212.533,434.169 231.816,434.169 231.816,440.158 225.661,440.158 
	215.404,451.644 226.892,472.486 233.621,472.486 "/>
<path fill="#121617" d="M273.616,478.476H252.2v-5.988h7.14V440.16h-7.14v-5.99h14.605v38.318h6.811V478.476z M258.93,419.646h8.287
	v8.369h-8.287V419.646z"/>
<path fill="#121617" d="M341.371,478.476h-20.431v-5.99h6.4v-27.402c0-3.283-1.314-4.514-5.744-4.514
	c-6.564,0-9.929,1.477-14.278,4.432v27.484h6.481v5.99h-20.922v-5.99h6.975V440.16h-6.975v-5.99h14.44v6.154
	c3.939-3.855,7.141-6.564,15.1-6.564c8.86,0,12.389,3.527,12.389,11.076v27.65h6.564V478.476L341.371,478.476z"/>
<path fill="#121617" d="M403.948,478.476h-14.111v-6.234c-3.856,3.855-7.14,6.562-15.591,6.562c-9.437,0-12.965-3.527-12.965-11.24
	v-22.48c0-7.713,3.528-11.242,12.965-11.242c8.451,0,11.733,2.707,15.591,6.562V424.57h-8.041v-5.992h15.508v53.91h6.646
	L403.948,478.476L403.948,478.476z M389.836,445.082c-4.351-2.953-7.714-4.432-14.771-4.432c-5.087,0-6.318,1.23-6.318,4.432v22.48
	c0,3.201,1.231,4.434,6.318,4.434c7.057,0,10.42-1.479,14.771-4.434V445.082z"/>
<path fill="#121617" d="M453.397,441.306h-2.873c-5.25,0-8.944,1.889-12.963,4.352v26.83h8.614v5.988h-23.056v-5.988h6.975v-32.246
	l-6.975-0.082v-5.99h14.441v6.564c3.609-3.527,7.137-6.564,13.62-6.564h2.216V441.306z"/>
<path fill="#121617" d="M480.668,467.728c0,3.117,1.312,4.432,4.431,4.432h10.996c3.2,0,4.43-1.312,4.43-4.432v-3.279h7.466v3.033
	c0,7.469-3.526,10.994-10.994,10.994h-12.8c-7.468,0-10.994-3.525-10.994-10.994v-22.316c0-7.467,3.526-10.996,10.994-10.996h12.8
	c7.468,0,10.994,3.529,10.994,10.996v12.963h-27.321L480.668,467.728L480.668,467.728z M485.099,440.486
	c-3.118,0-4.431,1.312-4.431,4.432v7.631h19.855v-7.631c0-3.119-1.229-4.432-4.43-4.432H485.099z"/>
<path fill="#121617" d="M571.553,478.476H557.44v-6.234c-3.854,3.855-7.139,6.562-15.589,6.562c-9.438,0-12.965-3.527-12.965-11.24
	v-22.48c0-7.713,3.526-11.242,12.965-11.242c8.45,0,11.733,2.707,15.589,6.562V424.57h-8.041v-5.992h15.509v53.91h6.646V478.476z
	 M557.44,445.082c-4.35-2.953-7.713-4.432-14.77-4.432c-5.088,0-6.318,1.23-6.318,4.432v22.48c0,3.201,1.23,4.434,6.318,4.434
	c7.057,0,10.42-1.479,14.77-4.434V445.082z"/>
</svg>
